<svg xmlns="http://www.w3.org/2000/svg" xmlns:xlink="http://www.w3.org/1999/xlink" width="194" zoomAndPan="magnify" viewBox="0 0 375 374.999991" height="46" preserveAspectRatio="xMidYMid meet" version="1.0"><defs><g/><clipPath id="1ea4a4054c"><path d="M 95.839844 138.277344 L 129.144531 138.277344 L 129.144531 185.113281 L 95.839844 185.113281 Z M 95.839844 138.277344 " clip-rule="nonzero"/></clipPath><clipPath id="0b5151bb2e"><path d="M 95.839844 185.113281 L 115.625 185.113281 L 129.144531 161.703125 L 115.625 138.289062 L 95.839844 138.289062 L 109.359375 161.703125 Z M 95.839844 185.113281 " clip-rule="nonzero"/></clipPath><clipPath id="3ceb222cff"><path d="M 21.015625 138.132812 L 105.417969 138.132812 L 105.417969 185.113281 L 21.015625 185.113281 Z M 21.015625 138.132812 " clip-rule="nonzero"/></clipPath><clipPath id="21ffd397fa"><path d="M 21.015625 185.113281 L 91.898438 185.113281 L 105.417969 161.703125 L 91.898438 138.289062 L 21.015625 138.289062 L 34.535156 161.703125 Z M 21.015625 185.113281 " clip-rule="nonzero"/></clipPath><clipPath id="73d276a2d4"><path d="M 43 144.761719 L 79 144.761719 L 79 173 L 43 173 Z M 43 144.761719 " clip-rule="nonzero"/></clipPath><clipPath id="6fc83e62e9"><path d="M 69 150 L 91.742188 150 L 91.742188 173 L 69 173 Z M 69 150 " clip-rule="nonzero"/></clipPath></defs><g clip-path="url(#1ea4a4054c)"><g clip-path="url(#0b5151bb2e)"><path fill="#38b6ff" d="M 129.144531 185.113281 L 95.839844 185.113281 L 95.839844 138.277344 L 129.144531 138.277344 Z M 129.144531 185.113281 " fill-opacity="1" fill-rule="nonzero"/></g></g><g clip-path="url(#3ceb222cff)"><g clip-path="url(#21ffd397fa)"><path fill="#004aad" d="M 105.417969 185.113281 L 21.015625 185.113281 L 21.015625 138.296875 L 105.417969 138.296875 Z M 105.417969 185.113281 " fill-opacity="1" fill-rule="nonzero"/></g></g><path fill="#ffffff" d="M 54.519531 179.722656 C 54.117188 179.722656 53.722656 179.683594 53.328125 179.605469 C 52.933594 179.527344 52.550781 179.410156 52.179688 179.257812 C 51.808594 179.105469 51.457031 178.914062 51.125 178.691406 C 50.789062 178.46875 50.480469 178.214844 50.195312 177.933594 C 49.914062 177.648438 49.660156 177.339844 49.4375 177.003906 C 49.214844 176.671875 49.023438 176.320312 48.871094 175.949219 C 48.71875 175.578125 48.601562 175.195312 48.523438 174.800781 C 48.445312 174.40625 48.40625 174.011719 48.40625 173.609375 C 48.40625 173.207031 48.445312 172.808594 48.523438 172.414062 C 48.601562 172.023438 48.71875 171.640625 48.871094 171.269531 C 49.023438 170.898438 49.214844 170.546875 49.4375 170.210938 C 49.660156 169.878906 49.914062 169.570312 50.195312 169.285156 C 50.480469 169 50.789062 168.746094 51.125 168.523438 C 51.457031 168.300781 51.808594 168.113281 52.179688 167.960938 C 52.550781 167.804688 52.933594 167.691406 53.328125 167.613281 C 53.722656 167.535156 54.117188 167.496094 54.519531 167.496094 C 54.921875 167.496094 55.320312 167.535156 55.714844 167.613281 C 56.105469 167.691406 56.488281 167.804688 56.859375 167.960938 C 57.230469 168.113281 57.582031 168.300781 57.917969 168.523438 C 58.25 168.746094 58.558594 169 58.84375 169.285156 C 59.128906 169.570312 59.382812 169.878906 59.605469 170.210938 C 59.828125 170.546875 60.015625 170.898438 60.167969 171.269531 C 60.324219 171.640625 60.4375 172.023438 60.515625 172.414062 C 60.59375 172.808594 60.632812 173.207031 60.632812 173.609375 C 60.632812 174.011719 60.59375 174.40625 60.515625 174.800781 C 60.4375 175.195312 60.324219 175.578125 60.167969 175.949219 C 60.015625 176.320312 59.828125 176.671875 59.605469 177.003906 C 59.382812 177.339844 59.128906 177.648438 58.84375 177.933594 C 58.558594 178.214844 58.25 178.46875 57.917969 178.691406 C 57.582031 178.914062 57.230469 179.105469 56.859375 179.257812 C 56.488281 179.410156 56.105469 179.527344 55.714844 179.605469 C 55.320312 179.683594 54.921875 179.722656 54.519531 179.722656 Z M 54.519531 170.988281 C 54.171875 170.988281 53.839844 171.054688 53.515625 171.1875 C 53.195312 171.320312 52.914062 171.511719 52.667969 171.753906 C 52.421875 172 52.230469 172.285156 52.097656 172.605469 C 51.964844 172.925781 51.898438 173.261719 51.898438 173.609375 C 51.898438 173.957031 51.964844 174.289062 52.097656 174.613281 C 52.230469 174.933594 52.421875 175.214844 52.667969 175.460938 C 52.914062 175.707031 53.195312 175.898438 53.515625 176.03125 C 53.839844 176.164062 54.171875 176.230469 54.519531 176.230469 C 54.867188 176.230469 55.203125 176.164062 55.523438 176.03125 C 55.84375 175.898438 56.128906 175.707031 56.375 175.460938 C 56.617188 175.214844 56.808594 174.933594 56.941406 174.613281 C 57.074219 174.289062 57.140625 173.957031 57.140625 173.609375 C 57.140625 173.261719 57.074219 172.925781 56.941406 172.605469 C 56.808594 172.285156 56.617188 172 56.375 171.753906 C 56.128906 171.511719 55.84375 171.320312 55.523438 171.1875 C 55.203125 171.054688 54.867188 170.988281 54.519531 170.988281 Z M 54.519531 170.988281 " fill-opacity="1" fill-rule="nonzero"/><path fill="#ffffff" d="M 80.726562 179.722656 C 80.324219 179.722656 79.925781 179.683594 79.53125 179.605469 C 79.136719 179.527344 78.757812 179.410156 78.386719 179.257812 C 78.015625 179.105469 77.660156 178.914062 77.328125 178.691406 C 76.992188 178.46875 76.683594 178.214844 76.402344 177.933594 C 76.117188 177.648438 75.863281 177.339844 75.640625 177.003906 C 75.417969 176.671875 75.230469 176.320312 75.074219 175.949219 C 74.921875 175.578125 74.804688 175.195312 74.726562 174.800781 C 74.648438 174.40625 74.609375 174.011719 74.609375 173.609375 C 74.609375 173.207031 74.648438 172.808594 74.726562 172.414062 C 74.804688 172.023438 74.921875 171.640625 75.074219 171.269531 C 75.230469 170.898438 75.417969 170.546875 75.640625 170.210938 C 75.863281 169.878906 76.117188 169.570312 76.402344 169.285156 C 76.683594 169 76.992188 168.746094 77.328125 168.523438 C 77.660156 168.300781 78.015625 168.113281 78.386719 167.960938 C 78.757812 167.804688 79.136719 167.691406 79.53125 167.613281 C 79.925781 167.535156 80.324219 167.496094 80.726562 167.496094 C 81.125 167.496094 81.523438 167.535156 81.917969 167.613281 C 82.3125 167.691406 82.695312 167.804688 83.066406 167.960938 C 83.4375 168.113281 83.789062 168.300781 84.121094 168.523438 C 84.457031 168.746094 84.765625 169 85.046875 169.285156 C 85.332031 169.570312 85.585938 169.878906 85.808594 170.210938 C 86.03125 170.546875 86.21875 170.898438 86.375 171.269531 C 86.527344 171.640625 86.644531 172.023438 86.722656 172.414062 C 86.800781 172.808594 86.839844 173.207031 86.839844 173.609375 C 86.839844 174.011719 86.800781 174.40625 86.722656 174.800781 C 86.644531 175.195312 86.527344 175.578125 86.375 175.949219 C 86.21875 176.320312 86.03125 176.671875 85.808594 177.003906 C 85.585938 177.339844 85.332031 177.648438 85.046875 177.933594 C 84.765625 178.214844 84.457031 178.46875 84.121094 178.691406 C 83.789062 178.914062 83.4375 179.105469 83.066406 179.257812 C 82.695312 179.410156 82.3125 179.527344 81.917969 179.605469 C 81.523438 179.683594 81.125 179.722656 80.726562 179.722656 Z M 80.726562 170.988281 C 80.378906 170.988281 80.042969 171.054688 79.722656 171.1875 C 79.402344 171.320312 79.117188 171.511719 78.871094 171.753906 C 78.625 172 78.4375 172.285156 78.304688 172.605469 C 78.171875 172.925781 78.105469 173.261719 78.105469 173.609375 C 78.105469 173.957031 78.171875 174.289062 78.304688 174.613281 C 78.4375 174.933594 78.625 175.214844 78.871094 175.460938 C 79.117188 175.707031 79.402344 175.898438 79.722656 176.03125 C 80.042969 176.164062 80.378906 176.230469 80.726562 176.230469 C 81.074219 176.230469 81.40625 176.164062 81.726562 176.03125 C 82.046875 175.898438 82.332031 175.707031 82.578125 175.460938 C 82.824219 175.214844 83.011719 174.933594 83.144531 174.613281 C 83.277344 174.289062 83.34375 173.957031 83.34375 173.609375 C 83.34375 173.261719 83.277344 172.925781 83.144531 172.605469 C 83.011719 172.285156 82.824219 172 82.578125 171.753906 C 82.332031 171.511719 82.046875 171.320312 81.726562 171.1875 C 81.40625 171.054688 81.074219 170.988281 80.726562 170.988281 Z M 80.726562 170.988281 " fill-opacity="1" fill-rule="nonzero"/><g clip-path="url(#73d276a2d4)"><path fill="#ffffff" d="M 71.117188 172.734375 L 65.664062 172.734375 C 65.433594 172.734375 65.210938 172.691406 64.996094 172.601562 C 64.785156 172.511719 64.59375 172.386719 64.429688 172.222656 C 64.265625 172.058594 64.140625 171.871094 64.050781 171.65625 C 63.964844 171.441406 63.917969 171.21875 63.917969 170.988281 C 63.917969 170.757812 63.964844 170.535156 64.050781 170.320312 C 64.140625 170.105469 64.265625 169.917969 64.429688 169.753906 C 64.59375 169.589844 64.785156 169.460938 64.996094 169.375 C 65.210938 169.285156 65.433594 169.242188 65.664062 169.242188 L 69.703125 169.242188 L 74.191406 148.277344 L 51.480469 148.277344 L 47.078125 169.242188 L 48.25 169.242188 C 48.480469 169.242188 48.703125 169.285156 48.917969 169.375 C 49.132812 169.460938 49.320312 169.589844 49.484375 169.753906 C 49.648438 169.917969 49.773438 170.105469 49.863281 170.320312 C 49.953125 170.535156 49.996094 170.757812 49.996094 170.988281 C 49.996094 171.21875 49.953125 171.441406 49.863281 171.65625 C 49.773438 171.871094 49.648438 172.058594 49.484375 172.222656 C 49.320312 172.386719 49.132812 172.511719 48.917969 172.601562 C 48.703125 172.691406 48.480469 172.734375 48.25 172.734375 L 44.910156 172.734375 C 44.644531 172.742188 44.390625 172.6875 44.144531 172.578125 C 43.902344 172.464844 43.695312 172.308594 43.527344 172.101562 C 43.355469 171.894531 43.238281 171.664062 43.175781 171.402344 C 43.113281 171.144531 43.109375 170.882812 43.164062 170.621094 L 48.40625 146.164062 C 48.492188 145.753906 48.703125 145.417969 49.03125 145.160156 C 49.359375 144.898438 49.734375 144.773438 50.152344 144.785156 L 76.359375 144.785156 C 76.625 144.777344 76.878906 144.832031 77.121094 144.941406 C 77.367188 145.050781 77.574219 145.210938 77.742188 145.417969 C 77.914062 145.625 78.03125 145.855469 78.09375 146.117188 C 78.15625 146.375 78.160156 146.636719 78.105469 146.898438 L 72.863281 171.355469 C 72.777344 171.765625 72.566406 172.101562 72.238281 172.359375 C 71.910156 172.621094 71.535156 172.746094 71.117188 172.734375 Z M 71.117188 172.734375 " fill-opacity="1" fill-rule="nonzero"/></g><path fill="#ffffff" d="M 65.648438 172.734375 L 58.015625 172.734375 C 57.78125 172.734375 57.558594 172.691406 57.347656 172.601562 C 57.132812 172.511719 56.941406 172.386719 56.777344 172.222656 C 56.613281 172.058594 56.488281 171.871094 56.398438 171.65625 C 56.3125 171.441406 56.265625 171.21875 56.265625 170.988281 C 56.265625 170.757812 56.3125 170.535156 56.398438 170.320312 C 56.488281 170.105469 56.613281 169.917969 56.777344 169.753906 C 56.941406 169.589844 57.132812 169.460938 57.347656 169.375 C 57.558594 169.285156 57.78125 169.242188 58.015625 169.242188 L 65.648438 169.242188 C 65.878906 169.242188 66.101562 169.285156 66.316406 169.375 C 66.53125 169.460938 66.71875 169.589844 66.882812 169.753906 C 67.046875 169.917969 67.175781 170.105469 67.261719 170.320312 C 67.351562 170.535156 67.394531 170.757812 67.394531 170.988281 C 67.394531 171.21875 67.351562 171.441406 67.261719 171.65625 C 67.175781 171.871094 67.046875 172.058594 66.882812 172.222656 C 66.71875 172.386719 66.53125 172.511719 66.316406 172.601562 C 66.101562 172.691406 65.878906 172.734375 65.648438 172.734375 Z M 65.648438 172.734375 " fill-opacity="1" fill-rule="nonzero"/><path fill="#ffffff" d="M 51.027344 172.734375 L 48.25 172.734375 C 48.015625 172.734375 47.792969 172.691406 47.582031 172.601562 C 47.367188 172.511719 47.175781 172.386719 47.011719 172.222656 C 46.847656 172.058594 46.722656 171.871094 46.632812 171.65625 C 46.546875 171.441406 46.5 171.21875 46.5 170.988281 C 46.5 170.757812 46.546875 170.535156 46.632812 170.320312 C 46.722656 170.105469 46.847656 169.917969 47.011719 169.753906 C 47.175781 169.589844 47.367188 169.460938 47.582031 169.375 C 47.792969 169.285156 48.015625 169.242188 48.25 169.242188 L 51.027344 169.242188 C 51.257812 169.242188 51.480469 169.285156 51.695312 169.375 C 51.910156 169.460938 52.097656 169.589844 52.261719 169.753906 C 52.425781 169.917969 52.550781 170.105469 52.640625 170.320312 C 52.730469 170.535156 52.773438 170.757812 52.773438 170.988281 C 52.773438 171.21875 52.730469 171.441406 52.640625 171.65625 C 52.550781 171.871094 52.425781 172.058594 52.261719 172.222656 C 52.097656 172.386719 51.910156 172.511719 51.695312 172.601562 C 51.480469 172.691406 51.257812 172.734375 51.027344 172.734375 Z M 51.027344 172.734375 " fill-opacity="1" fill-rule="nonzero"/><g clip-path="url(#6fc83e62e9)"><path fill="#ffffff" d="M 88.585938 172.734375 L 84.21875 172.734375 C 83.988281 172.734375 83.765625 172.691406 83.550781 172.601562 C 83.335938 172.511719 83.148438 172.386719 82.984375 172.222656 C 82.820312 172.058594 82.695312 171.871094 82.605469 171.65625 C 82.515625 171.441406 82.472656 171.21875 82.472656 170.988281 C 82.472656 170.757812 82.515625 170.535156 82.605469 170.320312 C 82.695312 170.105469 82.820312 169.917969 82.984375 169.753906 C 83.148438 169.589844 83.335938 169.460938 83.550781 169.375 C 83.765625 169.285156 83.988281 169.242188 84.21875 169.242188 L 87.101562 169.242188 L 88.480469 160.996094 L 82.507812 153.519531 L 76.621094 153.519531 L 73.28125 169.242188 L 77.230469 169.242188 C 77.460938 169.242188 77.683594 169.285156 77.898438 169.375 C 78.113281 169.460938 78.300781 169.589844 78.464844 169.753906 C 78.628906 169.917969 78.757812 170.105469 78.84375 170.320312 C 78.933594 170.535156 78.976562 170.757812 78.976562 170.988281 C 78.976562 171.21875 78.933594 171.441406 78.84375 171.65625 C 78.757812 171.871094 78.628906 172.058594 78.464844 172.222656 C 78.300781 172.386719 78.113281 172.511719 77.898438 172.601562 C 77.683594 172.691406 77.460938 172.734375 77.230469 172.734375 L 71.117188 172.734375 C 70.847656 172.742188 70.59375 172.6875 70.351562 172.578125 C 70.109375 172.464844 69.902344 172.308594 69.730469 172.101562 C 69.5625 171.894531 69.445312 171.664062 69.378906 171.402344 C 69.316406 171.144531 69.3125 170.882812 69.371094 170.621094 L 73.457031 151.507812 C 73.546875 151.101562 73.753906 150.765625 74.082031 150.503906 C 74.410156 150.246094 74.785156 150.121094 75.203125 150.128906 L 83.34375 150.023438 C 83.914062 150.023438 84.375 150.242188 84.726562 150.6875 L 91.714844 159.421875 C 92.035156 159.824219 92.160156 160.277344 92.082031 160.785156 L 90.332031 171.269531 C 90.300781 171.472656 90.230469 171.667969 90.128906 171.851562 C 90.023438 172.03125 89.894531 172.191406 89.730469 172.324219 C 89.570312 172.460938 89.394531 172.5625 89.195312 172.632812 C 89 172.703125 88.796875 172.738281 88.585938 172.734375 Z M 88.585938 172.734375 " fill-opacity="1" fill-rule="nonzero"/></g><path fill="#ffffff" d="M 64.128906 153.519531 L 44.910156 153.519531 C 44.679688 153.519531 44.457031 153.472656 44.242188 153.386719 C 44.03125 153.296875 43.839844 153.171875 43.675781 153.007812 C 43.511719 152.84375 43.386719 152.652344 43.296875 152.441406 C 43.210938 152.226562 43.164062 152.003906 43.164062 151.773438 C 43.164062 151.539062 43.210938 151.316406 43.296875 151.101562 C 43.386719 150.890625 43.511719 150.699219 43.675781 150.535156 C 43.839844 150.371094 44.03125 150.246094 44.242188 150.15625 C 44.457031 150.070312 44.679688 150.023438 44.910156 150.023438 L 64.128906 150.023438 C 64.359375 150.023438 64.582031 150.070312 64.796875 150.15625 C 65.011719 150.246094 65.199219 150.371094 65.363281 150.535156 C 65.527344 150.699219 65.652344 150.890625 65.742188 151.101562 C 65.832031 151.316406 65.875 151.539062 65.875 151.773438 C 65.875 152.003906 65.832031 152.226562 65.742188 152.441406 C 65.652344 152.652344 65.527344 152.84375 65.363281 153.007812 C 65.199219 153.171875 65.011719 153.296875 64.796875 153.386719 C 64.582031 153.472656 64.359375 153.519531 64.128906 153.519531 Z M 64.128906 153.519531 " fill-opacity="1" fill-rule="nonzero"/><path fill="#ffffff" d="M 62.382812 158.757812 L 44.910156 158.757812 C 44.679688 158.757812 44.457031 158.714844 44.242188 158.625 C 44.03125 158.539062 43.839844 158.410156 43.675781 158.246094 C 43.511719 158.082031 43.386719 157.894531 43.296875 157.679688 C 43.210938 157.46875 43.164062 157.242188 43.164062 157.011719 C 43.164062 156.78125 43.210938 156.558594 43.296875 156.34375 C 43.386719 156.128906 43.511719 155.941406 43.675781 155.777344 C 43.839844 155.613281 44.03125 155.488281 44.242188 155.398438 C 44.457031 155.308594 44.679688 155.265625 44.910156 155.265625 L 62.382812 155.265625 C 62.613281 155.265625 62.835938 155.308594 63.050781 155.398438 C 63.265625 155.488281 63.453125 155.613281 63.617188 155.777344 C 63.78125 155.941406 63.90625 156.128906 63.996094 156.34375 C 64.085938 156.558594 64.128906 156.78125 64.128906 157.011719 C 64.128906 157.242188 64.085938 157.46875 63.996094 157.679688 C 63.90625 157.894531 63.78125 158.082031 63.617188 158.246094 C 63.453125 158.410156 63.265625 158.539062 63.050781 158.625 C 62.835938 158.714844 62.613281 158.757812 62.382812 158.757812 Z M 62.382812 158.757812 " fill-opacity="1" fill-rule="nonzero"/><path fill="#ffffff" d="M 60.632812 164 L 44.910156 164 C 44.679688 164 44.457031 163.957031 44.242188 163.867188 C 44.03125 163.777344 43.839844 163.652344 43.675781 163.488281 C 43.511719 163.324219 43.386719 163.136719 43.296875 162.921875 C 43.210938 162.707031 43.164062 162.484375 43.164062 162.253906 C 43.164062 162.023438 43.210938 161.800781 43.296875 161.585938 C 43.386719 161.371094 43.511719 161.183594 43.675781 161.019531 C 43.839844 160.855469 44.03125 160.726562 44.242188 160.640625 C 44.457031 160.550781 44.679688 160.507812 44.910156 160.507812 L 60.632812 160.507812 C 60.867188 160.507812 61.089844 160.550781 61.304688 160.640625 C 61.515625 160.726562 61.707031 160.855469 61.871094 161.019531 C 62.035156 161.183594 62.160156 161.371094 62.25 161.585938 C 62.335938 161.800781 62.382812 162.023438 62.382812 162.253906 C 62.382812 162.484375 62.335938 162.707031 62.25 162.921875 C 62.160156 163.136719 62.035156 163.324219 61.871094 163.488281 C 61.707031 163.652344 61.515625 163.777344 61.304688 163.867188 C 61.089844 163.957031 60.867188 164 60.632812 164 Z M 60.632812 164 " fill-opacity="1" fill-rule="nonzero"/><path fill="#ffffff" d="M 79.851562 158.757812 L 74.609375 158.757812 C 74.378906 158.757812 74.15625 158.714844 73.941406 158.625 C 73.726562 158.539062 73.539062 158.410156 73.375 158.246094 C 73.210938 158.082031 73.085938 157.894531 72.996094 157.679688 C 72.90625 157.46875 72.863281 157.242188 72.863281 157.011719 C 72.863281 156.78125 72.90625 156.558594 72.996094 156.34375 C 73.085938 156.128906 73.210938 155.941406 73.375 155.777344 C 73.539062 155.613281 73.726562 155.488281 73.941406 155.398438 C 74.15625 155.308594 74.378906 155.265625 74.609375 155.265625 L 79.851562 155.265625 C 80.082031 155.265625 80.304688 155.308594 80.519531 155.398438 C 80.734375 155.488281 80.921875 155.613281 81.085938 155.777344 C 81.25 155.941406 81.375 156.128906 81.464844 156.34375 C 81.554688 156.558594 81.597656 156.78125 81.597656 157.011719 C 81.597656 157.242188 81.554688 157.46875 81.464844 157.679688 C 81.375 157.894531 81.25 158.082031 81.085938 158.246094 C 80.921875 158.410156 80.734375 158.539062 80.519531 158.625 C 80.304688 158.714844 80.082031 158.757812 79.851562 158.757812 Z M 79.851562 158.757812 " fill-opacity="1" fill-rule="nonzero"/><g fill="#004aad" fill-opacity="1"><g transform="translate(141.514726, 161.82957)"><g><path d="M 3.015625 0 C 2.773438 0 2.570312 -0.0703125 2.40625 -0.21875 C 2.25 -0.375 2.171875 -0.566406 2.171875 -0.796875 L 2.171875 -21.59375 C 2.171875 -21.832031 2.25 -22.03125 2.40625 -22.1875 C 2.570312 -22.351562 2.773438 -22.4375 3.015625 -22.4375 L 6.640625 -22.4375 C 7.171875 -22.4375 7.550781 -22.203125 7.78125 -21.734375 L 13.296875 -11.859375 L 18.84375 -21.734375 C 19.082031 -22.203125 19.46875 -22.4375 20 -22.4375 L 23.625 -22.4375 C 23.851562 -22.4375 24.046875 -22.351562 24.203125 -22.1875 C 24.367188 -22.03125 24.453125 -21.832031 24.453125 -21.59375 L 24.453125 -0.796875 C 24.453125 -0.566406 24.367188 -0.375 24.203125 -0.21875 C 24.046875 -0.0703125 23.851562 0 23.625 0 L 19.546875 0 C 19.335938 0 19.148438 -0.078125 18.984375 -0.234375 C 18.828125 -0.398438 18.75 -0.585938 18.75 -0.796875 L 18.75 -12.46875 L 15.28125 -6.125 C 15.007812 -5.632812 14.640625 -5.390625 14.171875 -5.390625 L 12.4375 -5.390625 C 12.007812 -5.390625 11.632812 -5.632812 11.3125 -6.125 L 7.890625 -12.46875 L 7.890625 -0.796875 C 7.890625 -0.566406 7.804688 -0.375 7.640625 -0.21875 C 7.484375 -0.0703125 7.285156 0 7.046875 0 Z M 3.015625 0 "/></g></g></g><g fill="#004aad" fill-opacity="1"><g transform="translate(168.139117, 161.82957)"><g><path d="M 2.984375 0 C 2.765625 0 2.570312 -0.078125 2.40625 -0.234375 C 2.25 -0.398438 2.171875 -0.585938 2.171875 -0.796875 L 2.171875 -21.625 C 2.171875 -21.863281 2.25 -22.054688 2.40625 -22.203125 C 2.570312 -22.359375 2.765625 -22.4375 2.984375 -22.4375 L 7.5625 -22.4375 C 7.800781 -22.4375 7.992188 -22.359375 8.140625 -22.203125 C 8.285156 -22.054688 8.359375 -21.863281 8.359375 -21.625 L 8.359375 -0.796875 C 8.359375 -0.585938 8.285156 -0.398438 8.140625 -0.234375 C 7.992188 -0.078125 7.800781 0 7.5625 0 Z M 2.984375 0 "/></g></g></g><g fill="#004aad" fill-opacity="1"><g transform="translate(178.679937, 161.82957)"><g><path d="M 11.5625 0.328125 C 8.46875 0.328125 6.046875 -0.425781 4.296875 -1.9375 C 2.546875 -3.445312 1.613281 -5.597656 1.5 -8.390625 C 1.476562 -8.992188 1.46875 -9.96875 1.46875 -11.3125 C 1.46875 -12.65625 1.476562 -13.640625 1.5 -14.265625 C 1.59375 -16.953125 2.53125 -19.035156 4.3125 -20.515625 C 6.09375 -22.003906 8.507812 -22.75 11.5625 -22.75 C 13.613281 -22.75 15.40625 -22.414062 16.9375 -21.75 C 18.46875 -21.09375 19.628906 -20.242188 20.421875 -19.203125 C 21.222656 -18.171875 21.648438 -17.109375 21.703125 -16.015625 C 21.703125 -15.828125 21.628906 -15.660156 21.484375 -15.515625 C 21.347656 -15.378906 21.179688 -15.3125 20.984375 -15.3125 L 16.015625 -15.3125 C 15.804688 -15.3125 15.640625 -15.347656 15.515625 -15.421875 C 15.398438 -15.503906 15.289062 -15.617188 15.1875 -15.765625 C 14.9375 -16.367188 14.523438 -16.882812 13.953125 -17.3125 C 13.390625 -17.738281 12.59375 -17.953125 11.5625 -17.953125 C 9.082031 -17.953125 7.800781 -16.664062 7.71875 -14.09375 C 7.695312 -13.5 7.6875 -12.582031 7.6875 -11.34375 C 7.6875 -10.101562 7.695312 -9.175781 7.71875 -8.5625 C 7.800781 -5.84375 9.109375 -4.484375 11.640625 -4.484375 C 12.867188 -4.484375 13.847656 -4.789062 14.578125 -5.40625 C 15.304688 -6.03125 15.671875 -6.972656 15.671875 -8.234375 L 15.671875 -8.8125 L 12.8125 -8.8125 C 12.582031 -8.8125 12.382812 -8.890625 12.21875 -9.046875 C 12.0625 -9.210938 11.984375 -9.410156 11.984375 -9.640625 L 11.984375 -12.140625 C 11.984375 -12.378906 12.0625 -12.578125 12.21875 -12.734375 C 12.382812 -12.898438 12.582031 -12.984375 12.8125 -12.984375 L 20.953125 -12.984375 C 21.191406 -12.984375 21.390625 -12.898438 21.546875 -12.734375 C 21.710938 -12.578125 21.796875 -12.378906 21.796875 -12.140625 L 21.796875 -8.421875 C 21.796875 -6.609375 21.375 -5.046875 20.53125 -3.734375 C 19.6875 -2.421875 18.492188 -1.414062 16.953125 -0.71875 C 15.410156 -0.0195312 13.613281 0.328125 11.5625 0.328125 Z M 11.5625 0.328125 "/></g></g></g><g fill="#004aad" fill-opacity="1"><g transform="translate(201.844128, 161.82957)"><g/></g></g><g fill="#004aad" fill-opacity="1"><g transform="translate(208.572316, 161.82957)"><g><path d="M 3.015625 0 C 2.773438 0 2.570312 -0.0703125 2.40625 -0.21875 C 2.25 -0.375 2.171875 -0.566406 2.171875 -0.796875 L 2.171875 -21.59375 C 2.171875 -21.832031 2.25 -22.03125 2.40625 -22.1875 C 2.570312 -22.351562 2.773438 -22.4375 3.015625 -22.4375 L 6.640625 -22.4375 C 7.171875 -22.4375 7.550781 -22.203125 7.78125 -21.734375 L 13.296875 -11.859375 L 18.84375 -21.734375 C 19.082031 -22.203125 19.46875 -22.4375 20 -22.4375 L 23.625 -22.4375 C 23.851562 -22.4375 24.046875 -22.351562 24.203125 -22.1875 C 24.367188 -22.03125 24.453125 -21.832031 24.453125 -21.59375 L 24.453125 -0.796875 C 24.453125 -0.566406 24.367188 -0.375 24.203125 -0.21875 C 24.046875 -0.0703125 23.851562 0 23.625 0 L 19.546875 0 C 19.335938 0 19.148438 -0.078125 18.984375 -0.234375 C 18.828125 -0.398438 18.75 -0.585938 18.75 -0.796875 L 18.75 -12.46875 L 15.28125 -6.125 C 15.007812 -5.632812 14.640625 -5.390625 14.171875 -5.390625 L 12.4375 -5.390625 C 12.007812 -5.390625 11.632812 -5.632812 11.3125 -6.125 L 7.890625 -12.46875 L 7.890625 -0.796875 C 7.890625 -0.566406 7.804688 -0.375 7.640625 -0.21875 C 7.484375 -0.0703125 7.285156 0 7.046875 0 Z M 3.015625 0 "/></g></g></g><g fill="#004aad" fill-opacity="1"><g transform="translate(235.196707, 161.82957)"><g><path d="M 11.46875 0.328125 C 8.4375 0.328125 6.046875 -0.410156 4.296875 -1.890625 C 2.546875 -3.367188 1.613281 -5.535156 1.5 -8.390625 C 1.476562 -8.992188 1.46875 -9.914062 1.46875 -11.15625 C 1.46875 -12.394531 1.476562 -13.320312 1.5 -13.9375 C 1.59375 -16.757812 2.53125 -18.929688 4.3125 -20.453125 C 6.09375 -21.984375 8.476562 -22.75 11.46875 -22.75 C 14.4375 -22.75 16.8125 -21.984375 18.59375 -20.453125 C 20.382812 -18.929688 21.320312 -16.757812 21.40625 -13.9375 C 21.445312 -12.695312 21.46875 -11.769531 21.46875 -11.15625 C 21.46875 -10.507812 21.445312 -9.585938 21.40625 -8.390625 C 21.300781 -5.535156 20.375 -3.367188 18.625 -1.890625 C 16.882812 -0.410156 14.5 0.328125 11.46875 0.328125 Z M 11.46875 -4.484375 C 12.582031 -4.484375 13.46875 -4.816406 14.125 -5.484375 C 14.789062 -6.160156 15.144531 -7.195312 15.1875 -8.59375 C 15.226562 -9.832031 15.25 -10.71875 15.25 -11.25 C 15.25 -11.78125 15.226562 -12.644531 15.1875 -13.84375 C 15.144531 -15.226562 14.789062 -16.257812 14.125 -16.9375 C 13.46875 -17.613281 12.582031 -17.953125 11.46875 -17.953125 C 10.34375 -17.953125 9.445312 -17.613281 8.78125 -16.9375 C 8.113281 -16.257812 7.757812 -15.226562 7.71875 -13.84375 C 7.695312 -13.25 7.6875 -12.382812 7.6875 -11.25 C 7.6875 -10.09375 7.695312 -9.207031 7.71875 -8.59375 C 7.757812 -7.195312 8.113281 -6.160156 8.78125 -5.484375 C 9.445312 -4.816406 10.34375 -4.484375 11.46875 -4.484375 Z M 11.46875 -4.484375 "/></g></g></g><g fill="#004aad" fill-opacity="1"><g transform="translate(258.104585, 161.82957)"><g><path d="M 8.59375 0 C 8.226562 0 7.929688 -0.0859375 7.703125 -0.265625 C 7.484375 -0.453125 7.332031 -0.6875 7.25 -0.96875 L 0.765625 -21.46875 L 0.703125 -21.765625 C 0.703125 -21.929688 0.769531 -22.082031 0.90625 -22.21875 C 1.050781 -22.363281 1.21875 -22.4375 1.40625 -22.4375 L 5.609375 -22.4375 C 5.929688 -22.4375 6.191406 -22.34375 6.390625 -22.15625 C 6.597656 -21.976562 6.734375 -21.78125 6.796875 -21.5625 L 11.15625 -7.078125 L 15.546875 -21.5625 C 15.609375 -21.800781 15.738281 -22.003906 15.9375 -22.171875 C 16.144531 -22.347656 16.410156 -22.4375 16.734375 -22.4375 L 20.921875 -22.4375 C 21.117188 -22.4375 21.28125 -22.363281 21.40625 -22.21875 C 21.53125 -22.082031 21.59375 -21.929688 21.59375 -21.765625 C 21.59375 -21.648438 21.582031 -21.550781 21.5625 -21.46875 L 15.0625 -0.96875 C 15 -0.6875 14.851562 -0.453125 14.625 -0.265625 C 14.40625 -0.0859375 14.113281 0 13.75 0 Z M 8.59375 0 "/></g></g></g><g fill="#004aad" fill-opacity="1"><g transform="translate(280.43576, 161.82957)"><g><path d="M 2.984375 0 C 2.765625 0 2.570312 -0.078125 2.40625 -0.234375 C 2.25 -0.398438 2.171875 -0.585938 2.171875 -0.796875 L 2.171875 -21.59375 C 2.171875 -21.832031 2.242188 -22.03125 2.390625 -22.1875 C 2.546875 -22.351562 2.742188 -22.4375 2.984375 -22.4375 L 18.109375 -22.4375 C 18.335938 -22.4375 18.53125 -22.351562 18.6875 -22.1875 C 18.851562 -22.03125 18.9375 -21.832031 18.9375 -21.59375 L 18.9375 -18.421875 C 18.9375 -18.191406 18.851562 -18 18.6875 -17.84375 C 18.53125 -17.695312 18.335938 -17.625 18.109375 -17.625 L 7.984375 -17.625 L 7.984375 -13.5625 L 17.40625 -13.5625 C 17.632812 -13.5625 17.828125 -13.476562 17.984375 -13.3125 C 18.148438 -13.15625 18.234375 -12.957031 18.234375 -12.71875 L 18.234375 -9.8125 C 18.234375 -9.570312 18.148438 -9.367188 17.984375 -9.203125 C 17.828125 -9.046875 17.632812 -8.96875 17.40625 -8.96875 L 7.984375 -8.96875 L 7.984375 -4.8125 L 18.359375 -4.8125 C 18.597656 -4.8125 18.796875 -4.726562 18.953125 -4.5625 C 19.117188 -4.40625 19.203125 -4.207031 19.203125 -3.96875 L 19.203125 -0.796875 C 19.203125 -0.566406 19.117188 -0.375 18.953125 -0.21875 C 18.796875 -0.0703125 18.597656 0 18.359375 0 Z M 2.984375 0 "/></g></g></g><g fill="#004aad" fill-opacity="1"><g transform="translate(301.004785, 161.82957)"><g><path d="M 2.984375 0 C 2.765625 0 2.570312 -0.078125 2.40625 -0.234375 C 2.25 -0.398438 2.171875 -0.585938 2.171875 -0.796875 L 2.171875 -21.59375 C 2.171875 -21.832031 2.242188 -22.03125 2.390625 -22.1875 C 2.546875 -22.351562 2.742188 -22.4375 2.984375 -22.4375 L 11.796875 -22.4375 C 14.609375 -22.4375 16.8125 -21.796875 18.40625 -20.515625 C 20 -19.234375 20.796875 -17.425781 20.796875 -15.09375 C 20.796875 -13.59375 20.445312 -12.316406 19.75 -11.265625 C 19.0625 -10.222656 18.109375 -9.414062 16.890625 -8.84375 L 21.21875 -1.03125 C 21.28125 -0.894531 21.3125 -0.773438 21.3125 -0.671875 C 21.3125 -0.503906 21.242188 -0.347656 21.109375 -0.203125 C 20.984375 -0.0664062 20.828125 0 20.640625 0 L 16.125 0 C 15.5 0 15.0625 -0.285156 14.8125 -0.859375 L 11.28125 -7.8125 L 8.203125 -7.8125 L 8.203125 -0.796875 C 8.203125 -0.566406 8.117188 -0.375 7.953125 -0.21875 C 7.796875 -0.0703125 7.601562 0 7.375 0 Z M 11.765625 -12.53125 C 12.679688 -12.53125 13.378906 -12.757812 13.859375 -13.21875 C 14.335938 -13.675781 14.578125 -14.3125 14.578125 -15.125 C 14.578125 -15.9375 14.335938 -16.585938 13.859375 -17.078125 C 13.378906 -17.566406 12.679688 -17.8125 11.765625 -17.8125 L 8.203125 -17.8125 L 8.203125 -12.53125 Z M 11.765625 -12.53125 "/></g></g></g><g fill="#004aad" fill-opacity="1"><g transform="translate(323.271885, 161.82957)"><g><path d="M 10.671875 0.328125 C 8.597656 0.328125 6.832031 0.03125 5.375 -0.5625 C 3.925781 -1.164062 2.828125 -1.957031 2.078125 -2.9375 C 1.335938 -3.925781 0.941406 -5 0.890625 -6.15625 C 0.890625 -6.34375 0.957031 -6.5 1.09375 -6.625 C 1.238281 -6.757812 1.410156 -6.828125 1.609375 -6.828125 L 5.859375 -6.828125 C 6.117188 -6.828125 6.328125 -6.78125 6.484375 -6.6875 C 6.648438 -6.601562 6.828125 -6.457031 7.015625 -6.25 C 7.296875 -5.738281 7.726562 -5.316406 8.3125 -4.984375 C 8.90625 -4.648438 9.691406 -4.484375 10.671875 -4.484375 C 11.828125 -4.484375 12.710938 -4.660156 13.328125 -5.015625 C 13.953125 -5.367188 14.265625 -5.851562 14.265625 -6.46875 C 14.265625 -6.914062 14.101562 -7.285156 13.78125 -7.578125 C 13.457031 -7.867188 12.941406 -8.125 12.234375 -8.34375 C 11.535156 -8.570312 10.523438 -8.820312 9.203125 -9.09375 C 6.609375 -9.613281 4.671875 -10.394531 3.390625 -11.4375 C 2.109375 -12.488281 1.46875 -13.984375 1.46875 -15.921875 C 1.46875 -17.253906 1.835938 -18.4375 2.578125 -19.46875 C 3.316406 -20.5 4.363281 -21.300781 5.71875 -21.875 C 7.070312 -22.457031 8.648438 -22.75 10.453125 -22.75 C 12.328125 -22.75 13.953125 -22.421875 15.328125 -21.765625 C 16.710938 -21.117188 17.769531 -20.304688 18.5 -19.328125 C 19.238281 -18.359375 19.628906 -17.40625 19.671875 -16.46875 C 19.671875 -16.28125 19.609375 -16.113281 19.484375 -15.96875 C 19.359375 -15.832031 19.195312 -15.765625 19 -15.765625 L 14.515625 -15.765625 C 14.046875 -15.765625 13.679688 -15.957031 13.421875 -16.34375 C 13.296875 -16.789062 12.96875 -17.171875 12.4375 -17.484375 C 11.90625 -17.796875 11.242188 -17.953125 10.453125 -17.953125 C 9.546875 -17.953125 8.847656 -17.789062 8.359375 -17.46875 C 7.867188 -17.144531 7.625 -16.675781 7.625 -16.0625 C 7.625 -15.4375 7.941406 -14.945312 8.578125 -14.59375 C 9.222656 -14.238281 10.421875 -13.882812 12.171875 -13.53125 C 14.179688 -13.164062 15.78125 -12.707031 16.96875 -12.15625 C 18.15625 -11.613281 19.03125 -10.910156 19.59375 -10.046875 C 20.164062 -9.179688 20.453125 -8.085938 20.453125 -6.765625 C 20.453125 -5.304688 20.035156 -4.039062 19.203125 -2.96875 C 18.367188 -1.90625 17.210938 -1.085938 15.734375 -0.515625 C 14.265625 0.046875 12.578125 0.328125 10.671875 0.328125 Z M 10.671875 0.328125 "/></g></g></g><g fill="#073b4c" fill-opacity="1"><g transform="translate(146.353643, 183.625418)"><g><path d="M 2.65625 0 C 2.394531 0 2.226562 -0.132812 2.15625 -0.40625 L 0.53125 -9.25 L 0.53125 -9.359375 C 0.53125 -9.441406 0.554688 -9.507812 0.609375 -9.5625 C 0.660156 -9.613281 0.726562 -9.640625 0.8125 -9.640625 L 2.046875 -9.640625 C 2.171875 -9.640625 2.257812 -9.617188 2.3125 -9.578125 C 2.363281 -9.535156 2.398438 -9.46875 2.421875 -9.375 L 3.5625 -3.171875 L 4.796875 -7.171875 C 4.890625 -7.398438 5.039062 -7.515625 5.25 -7.515625 L 6.015625 -7.515625 C 6.128906 -7.515625 6.222656 -7.476562 6.296875 -7.40625 C 6.367188 -7.332031 6.421875 -7.253906 6.453125 -7.171875 L 7.6875 -3.171875 L 8.8125 -9.375 C 8.84375 -9.550781 8.972656 -9.640625 9.203125 -9.640625 L 10.453125 -9.640625 C 10.523438 -9.640625 10.585938 -9.613281 10.640625 -9.5625 C 10.691406 -9.507812 10.71875 -9.441406 10.71875 -9.359375 C 10.71875 -9.304688 10.710938 -9.269531 10.703125 -9.25 L 9.078125 -0.40625 C 9.054688 -0.28125 9.003906 -0.179688 8.921875 -0.109375 C 8.835938 -0.0351562 8.722656 0 8.578125 0 L 7.65625 0 C 7.519531 0 7.410156 -0.03125 7.328125 -0.09375 C 7.242188 -0.164062 7.191406 -0.25 7.171875 -0.34375 L 5.625 -4.921875 L 4.078125 -0.34375 C 4.003906 -0.113281 3.84375 0 3.59375 0 Z M 2.65625 0 "/></g></g></g><g fill="#073b4c" fill-opacity="1"><g transform="translate(157.596955, 183.625418)"><g><path d="M 4.015625 0.140625 C 2.984375 0.140625 2.164062 -0.148438 1.5625 -0.734375 C 0.957031 -1.328125 0.640625 -2.164062 0.609375 -3.25 L 0.59375 -3.59375 C 0.59375 -4.738281 0.890625 -5.640625 1.484375 -6.296875 C 2.085938 -6.960938 2.925781 -7.296875 4 -7.296875 C 5.09375 -7.296875 5.9375 -6.960938 6.53125 -6.296875 C 7.125 -5.640625 7.421875 -4.765625 7.421875 -3.671875 L 7.421875 -3.375 C 7.421875 -3.28125 7.382812 -3.203125 7.3125 -3.140625 C 7.25 -3.078125 7.164062 -3.046875 7.0625 -3.046875 L 2.5 -3.046875 L 2.5 -2.9375 C 2.507812 -2.414062 2.644531 -1.988281 2.90625 -1.65625 C 3.175781 -1.320312 3.539062 -1.15625 4 -1.15625 C 4.519531 -1.15625 4.945312 -1.367188 5.28125 -1.796875 C 5.363281 -1.890625 5.425781 -1.945312 5.46875 -1.96875 C 5.519531 -2 5.597656 -2.015625 5.703125 -2.015625 L 6.921875 -2.015625 C 7.003906 -2.015625 7.070312 -1.988281 7.125 -1.9375 C 7.1875 -1.894531 7.21875 -1.832031 7.21875 -1.75 C 7.21875 -1.53125 7.085938 -1.269531 6.828125 -0.96875 C 6.566406 -0.675781 6.191406 -0.414062 5.703125 -0.1875 C 5.210938 0.03125 4.648438 0.140625 4.015625 0.140625 Z M 5.515625 -4.21875 L 5.515625 -4.25 C 5.515625 -4.789062 5.378906 -5.222656 5.109375 -5.546875 C 4.835938 -5.867188 4.46875 -6.03125 4 -6.03125 C 3.53125 -6.03125 3.160156 -5.867188 2.890625 -5.546875 C 2.628906 -5.222656 2.5 -4.789062 2.5 -4.25 L 2.5 -4.21875 Z M 5.515625 -4.21875 "/></g></g></g><g fill="#073b4c" fill-opacity="1"><g transform="translate(165.560965, 183.625418)"><g/></g></g><g fill="#073b4c" fill-opacity="1"><g transform="translate(168.702475, 183.625418)"><g><path d="M 1.40625 0 C 1.3125 0 1.234375 -0.03125 1.171875 -0.09375 C 1.109375 -0.15625 1.078125 -0.234375 1.078125 -0.328125 L 1.078125 -9.296875 C 1.078125 -9.398438 1.101562 -9.484375 1.15625 -9.546875 C 1.21875 -9.609375 1.300781 -9.640625 1.40625 -9.640625 L 5.09375 -9.640625 C 6.207031 -9.640625 7.082031 -9.378906 7.71875 -8.859375 C 8.351562 -8.335938 8.671875 -7.578125 8.671875 -6.578125 C 8.671875 -5.578125 8.351562 -4.820312 7.71875 -4.3125 C 7.082031 -3.8125 6.207031 -3.5625 5.09375 -3.5625 L 3.078125 -3.5625 L 3.078125 -0.328125 C 3.078125 -0.222656 3.039062 -0.140625 2.96875 -0.078125 C 2.90625 -0.0234375 2.828125 0 2.734375 0 Z M 5.03125 -5.09375 C 5.5625 -5.09375 5.96875 -5.21875 6.25 -5.46875 C 6.53125 -5.726562 6.671875 -6.101562 6.671875 -6.59375 C 6.671875 -7.0625 6.535156 -7.429688 6.265625 -7.703125 C 5.992188 -7.972656 5.582031 -8.109375 5.03125 -8.109375 L 3.046875 -8.109375 L 3.046875 -5.09375 Z M 5.03125 -5.09375 "/></g></g></g><g fill="#073b4c" fill-opacity="1"><g transform="translate(177.796335, 183.625418)"><g><path d="M 2.984375 0.140625 C 2.515625 0.140625 2.082031 0.046875 1.6875 -0.140625 C 1.300781 -0.328125 0.992188 -0.582031 0.765625 -0.90625 C 0.546875 -1.226562 0.4375 -1.582031 0.4375 -1.96875 C 0.4375 -2.59375 0.6875 -3.097656 1.1875 -3.484375 C 1.695312 -3.867188 2.394531 -4.128906 3.28125 -4.265625 L 5.171875 -4.546875 L 5.171875 -4.84375 C 5.171875 -5.238281 5.066406 -5.535156 4.859375 -5.734375 C 4.660156 -5.929688 4.34375 -6.03125 3.90625 -6.03125 C 3.601562 -6.03125 3.359375 -5.972656 3.171875 -5.859375 C 2.984375 -5.753906 2.832031 -5.644531 2.71875 -5.53125 C 2.601562 -5.414062 2.53125 -5.34375 2.5 -5.3125 C 2.457031 -5.195312 2.382812 -5.140625 2.28125 -5.140625 L 1.21875 -5.140625 C 1.132812 -5.140625 1.0625 -5.164062 1 -5.21875 C 0.9375 -5.28125 0.90625 -5.351562 0.90625 -5.4375 C 0.914062 -5.664062 1.03125 -5.925781 1.25 -6.21875 C 1.46875 -6.507812 1.800781 -6.757812 2.25 -6.96875 C 2.695312 -7.1875 3.25 -7.296875 3.90625 -7.296875 C 5 -7.296875 5.789062 -7.050781 6.28125 -6.5625 C 6.78125 -6.082031 7.03125 -5.445312 7.03125 -4.65625 L 7.03125 -0.328125 C 7.03125 -0.234375 7 -0.15625 6.9375 -0.09375 C 6.875 -0.03125 6.796875 0 6.703125 0 L 5.546875 0 C 5.460938 0 5.382812 -0.03125 5.3125 -0.09375 C 5.25 -0.15625 5.21875 -0.234375 5.21875 -0.328125 L 5.21875 -0.875 C 5.019531 -0.570312 4.734375 -0.328125 4.359375 -0.140625 C 3.992188 0.046875 3.535156 0.140625 2.984375 0.140625 Z M 3.453125 -1.1875 C 3.960938 -1.1875 4.378906 -1.347656 4.703125 -1.671875 C 5.023438 -2.003906 5.1875 -2.484375 5.1875 -3.109375 L 5.1875 -3.390625 L 3.796875 -3.171875 C 2.742188 -3.003906 2.21875 -2.648438 2.21875 -2.109375 C 2.21875 -1.816406 2.335938 -1.585938 2.578125 -1.421875 C 2.828125 -1.265625 3.117188 -1.1875 3.453125 -1.1875 Z M 3.453125 -1.1875 "/></g></g></g><g fill="#073b4c" fill-opacity="1"><g transform="translate(185.677678, 183.625418)"><g><path d="M 4.015625 0.140625 C 3.003906 0.140625 2.195312 -0.140625 1.59375 -0.703125 C 0.988281 -1.265625 0.671875 -2.039062 0.640625 -3.03125 L 0.625 -3.578125 L 0.640625 -4.140625 C 0.671875 -5.128906 0.988281 -5.898438 1.59375 -6.453125 C 2.195312 -7.015625 3.003906 -7.296875 4.015625 -7.296875 C 4.734375 -7.296875 5.34375 -7.164062 5.84375 -6.90625 C 6.34375 -6.65625 6.710938 -6.34375 6.953125 -5.96875 C 7.203125 -5.601562 7.335938 -5.25 7.359375 -4.90625 C 7.367188 -4.8125 7.335938 -4.734375 7.265625 -4.671875 C 7.203125 -4.609375 7.125 -4.578125 7.03125 -4.578125 L 5.796875 -4.578125 C 5.703125 -4.578125 5.628906 -4.597656 5.578125 -4.640625 C 5.535156 -4.679688 5.488281 -4.753906 5.4375 -4.859375 C 5.300781 -5.210938 5.117188 -5.46875 4.890625 -5.625 C 4.671875 -5.78125 4.382812 -5.859375 4.03125 -5.859375 C 3.5625 -5.859375 3.195312 -5.707031 2.9375 -5.40625 C 2.675781 -5.113281 2.535156 -4.664062 2.515625 -4.0625 L 2.515625 -3.09375 C 2.578125 -1.90625 3.082031 -1.3125 4.03125 -1.3125 C 4.394531 -1.3125 4.6875 -1.382812 4.90625 -1.53125 C 5.125 -1.6875 5.300781 -1.941406 5.4375 -2.296875 C 5.476562 -2.398438 5.523438 -2.472656 5.578125 -2.515625 C 5.628906 -2.566406 5.703125 -2.59375 5.796875 -2.59375 L 7.03125 -2.59375 C 7.125 -2.59375 7.203125 -2.554688 7.265625 -2.484375 C 7.335938 -2.421875 7.367188 -2.347656 7.359375 -2.265625 C 7.335938 -1.941406 7.207031 -1.59375 6.96875 -1.21875 C 6.726562 -0.84375 6.359375 -0.519531 5.859375 -0.25 C 5.367188 0.0078125 4.753906 0.140625 4.015625 0.140625 Z M 4.015625 0.140625 "/></g></g></g><g fill="#073b4c" fill-opacity="1"><g transform="translate(193.55902, 183.625418)"><g><path d="M 1.25 0 C 1.15625 0 1.078125 -0.03125 1.015625 -0.09375 C 0.953125 -0.15625 0.921875 -0.234375 0.921875 -0.328125 L 0.921875 -9.453125 C 0.921875 -9.554688 0.953125 -9.632812 1.015625 -9.6875 C 1.078125 -9.75 1.15625 -9.78125 1.25 -9.78125 L 2.390625 -9.78125 C 2.484375 -9.78125 2.5625 -9.75 2.625 -9.6875 C 2.695312 -9.625 2.734375 -9.546875 2.734375 -9.453125 L 2.734375 -4.734375 L 5.015625 -6.9375 C 5.046875 -6.945312 5.085938 -6.976562 5.140625 -7.03125 C 5.203125 -7.082031 5.257812 -7.117188 5.3125 -7.140625 C 5.375 -7.160156 5.445312 -7.171875 5.53125 -7.171875 L 6.828125 -7.171875 C 6.921875 -7.171875 6.992188 -7.140625 7.046875 -7.078125 C 7.109375 -7.023438 7.140625 -6.953125 7.140625 -6.859375 C 7.140625 -6.773438 7.09375 -6.691406 7 -6.609375 L 4.1875 -3.953125 L 7.34375 -0.53125 C 7.425781 -0.445312 7.46875 -0.367188 7.46875 -0.296875 C 7.46875 -0.210938 7.4375 -0.140625 7.375 -0.078125 C 7.320312 -0.0234375 7.257812 0 7.1875 0 L 5.84375 0 C 5.71875 0 5.625 -0.015625 5.5625 -0.046875 C 5.5 -0.078125 5.421875 -0.140625 5.328125 -0.234375 L 2.734375 -3 L 2.734375 -0.328125 C 2.734375 -0.234375 2.695312 -0.15625 2.625 -0.09375 C 2.5625 -0.03125 2.484375 0 2.390625 0 Z M 1.25 0 "/></g></g></g><g fill="#073b4c" fill-opacity="1"><g transform="translate(201.164788, 183.625418)"><g><path d="M 0.8125 1.03125 C 0.738281 1.03125 0.675781 1.003906 0.625 0.953125 C 0.582031 0.898438 0.566406 0.832031 0.578125 0.75 L 0.9375 -1.609375 C 0.988281 -1.898438 1.140625 -2.046875 1.390625 -2.046875 L 2.671875 -2.046875 C 2.734375 -2.046875 2.789062 -2.019531 2.84375 -1.96875 C 2.894531 -1.925781 2.921875 -1.875 2.921875 -1.8125 C 2.921875 -1.757812 2.90625 -1.691406 2.875 -1.609375 L 1.984375 0.671875 C 1.890625 0.910156 1.738281 1.03125 1.53125 1.03125 Z M 0.8125 1.03125 "/></g></g></g><g fill="#073b4c" fill-opacity="1"><g transform="translate(204.816109, 183.625418)"><g/></g></g><g fill="#073b4c" fill-opacity="1"><g transform="translate(207.957619, 183.625418)"><g><path d="M 2.65625 0 C 2.394531 0 2.226562 -0.132812 2.15625 -0.40625 L 0.53125 -9.25 L 0.53125 -9.359375 C 0.53125 -9.441406 0.554688 -9.507812 0.609375 -9.5625 C 0.660156 -9.613281 0.726562 -9.640625 0.8125 -9.640625 L 2.046875 -9.640625 C 2.171875 -9.640625 2.257812 -9.617188 2.3125 -9.578125 C 2.363281 -9.535156 2.398438 -9.46875 2.421875 -9.375 L 3.5625 -3.171875 L 4.796875 -7.171875 C 4.890625 -7.398438 5.039062 -7.515625 5.25 -7.515625 L 6.015625 -7.515625 C 6.128906 -7.515625 6.222656 -7.476562 6.296875 -7.40625 C 6.367188 -7.332031 6.421875 -7.253906 6.453125 -7.171875 L 7.6875 -3.171875 L 8.8125 -9.375 C 8.84375 -9.550781 8.972656 -9.640625 9.203125 -9.640625 L 10.453125 -9.640625 C 10.523438 -9.640625 10.585938 -9.613281 10.640625 -9.5625 C 10.691406 -9.507812 10.71875 -9.441406 10.71875 -9.359375 C 10.71875 -9.304688 10.710938 -9.269531 10.703125 -9.25 L 9.078125 -0.40625 C 9.054688 -0.28125 9.003906 -0.179688 8.921875 -0.109375 C 8.835938 -0.0351562 8.722656 0 8.578125 0 L 7.65625 0 C 7.519531 0 7.410156 -0.03125 7.328125 -0.09375 C 7.242188 -0.164062 7.191406 -0.25 7.171875 -0.34375 L 5.625 -4.921875 L 4.078125 -0.34375 C 4.003906 -0.113281 3.84375 0 3.59375 0 Z M 2.65625 0 "/></g></g></g><g fill="#073b4c" fill-opacity="1"><g transform="translate(219.200931, 183.625418)"><g><path d="M 4.015625 0.140625 C 2.984375 0.140625 2.164062 -0.148438 1.5625 -0.734375 C 0.957031 -1.328125 0.640625 -2.164062 0.609375 -3.25 L 0.59375 -3.59375 C 0.59375 -4.738281 0.890625 -5.640625 1.484375 -6.296875 C 2.085938 -6.960938 2.925781 -7.296875 4 -7.296875 C 5.09375 -7.296875 5.9375 -6.960938 6.53125 -6.296875 C 7.125 -5.640625 7.421875 -4.765625 7.421875 -3.671875 L 7.421875 -3.375 C 7.421875 -3.28125 7.382812 -3.203125 7.3125 -3.140625 C 7.25 -3.078125 7.164062 -3.046875 7.0625 -3.046875 L 2.5 -3.046875 L 2.5 -2.9375 C 2.507812 -2.414062 2.644531 -1.988281 2.90625 -1.65625 C 3.175781 -1.320312 3.539062 -1.15625 4 -1.15625 C 4.519531 -1.15625 4.945312 -1.367188 5.28125 -1.796875 C 5.363281 -1.890625 5.425781 -1.945312 5.46875 -1.96875 C 5.519531 -2 5.597656 -2.015625 5.703125 -2.015625 L 6.921875 -2.015625 C 7.003906 -2.015625 7.070312 -1.988281 7.125 -1.9375 C 7.1875 -1.894531 7.21875 -1.832031 7.21875 -1.75 C 7.21875 -1.53125 7.085938 -1.269531 6.828125 -0.96875 C 6.566406 -0.675781 6.191406 -0.414062 5.703125 -0.1875 C 5.210938 0.03125 4.648438 0.140625 4.015625 0.140625 Z M 5.515625 -4.21875 L 5.515625 -4.25 C 5.515625 -4.789062 5.378906 -5.222656 5.109375 -5.546875 C 4.835938 -5.867188 4.46875 -6.03125 4 -6.03125 C 3.53125 -6.03125 3.160156 -5.867188 2.890625 -5.546875 C 2.628906 -5.222656 2.5 -4.789062 2.5 -4.25 L 2.5 -4.21875 Z M 5.515625 -4.21875 "/></g></g></g><g fill="#073b4c" fill-opacity="1"><g transform="translate(227.164941, 183.625418)"><g/></g></g><g fill="#073b4c" fill-opacity="1"><g transform="translate(230.306451, 183.625418)"><g><path d="M 1.40625 0 C 1.3125 0 1.234375 -0.03125 1.171875 -0.09375 C 1.109375 -0.15625 1.078125 -0.234375 1.078125 -0.328125 L 1.078125 -9.296875 C 1.078125 -9.398438 1.101562 -9.484375 1.15625 -9.546875 C 1.21875 -9.609375 1.300781 -9.640625 1.40625 -9.640625 L 2.515625 -9.640625 C 2.691406 -9.640625 2.832031 -9.554688 2.9375 -9.390625 L 5.59375 -4.453125 L 8.25 -9.390625 C 8.351562 -9.554688 8.492188 -9.640625 8.671875 -9.640625 L 9.765625 -9.640625 C 9.867188 -9.640625 9.953125 -9.609375 10.015625 -9.546875 C 10.078125 -9.484375 10.109375 -9.398438 10.109375 -9.296875 L 10.109375 -0.328125 C 10.109375 -0.222656 10.078125 -0.140625 10.015625 -0.078125 C 9.953125 -0.0234375 9.867188 0 9.765625 0 L 8.578125 0 C 8.492188 0 8.414062 -0.03125 8.34375 -0.09375 C 8.28125 -0.15625 8.25 -0.234375 8.25 -0.328125 L 8.25 -6.25 L 6.34375 -2.625 C 6.238281 -2.414062 6.085938 -2.3125 5.890625 -2.3125 L 5.3125 -2.3125 C 5.113281 -2.3125 4.957031 -2.414062 4.84375 -2.625 L 2.921875 -6.25 L 2.921875 -0.328125 C 2.921875 -0.234375 2.890625 -0.15625 2.828125 -0.09375 C 2.773438 -0.03125 2.695312 0 2.59375 0 Z M 1.40625 0 "/></g></g></g><g fill="#073b4c" fill-opacity="1"><g transform="translate(241.494648, 183.625418)"><g><path d="M 4.09375 0.140625 C 3.007812 0.140625 2.171875 -0.132812 1.578125 -0.6875 C 0.992188 -1.238281 0.679688 -2.003906 0.640625 -2.984375 L 0.625 -3.578125 L 0.640625 -4.1875 C 0.679688 -5.15625 1 -5.914062 1.59375 -6.46875 C 2.195312 -7.019531 3.03125 -7.296875 4.09375 -7.296875 C 5.144531 -7.296875 5.96875 -7.019531 6.5625 -6.46875 C 7.164062 -5.914062 7.488281 -5.15625 7.53125 -4.1875 C 7.539062 -4.082031 7.546875 -3.878906 7.546875 -3.578125 C 7.546875 -3.285156 7.539062 -3.085938 7.53125 -2.984375 C 7.488281 -2.003906 7.171875 -1.238281 6.578125 -0.6875 C 5.992188 -0.132812 5.164062 0.140625 4.09375 0.140625 Z M 4.09375 -1.25 C 4.582031 -1.25 4.957031 -1.398438 5.21875 -1.703125 C 5.476562 -2.003906 5.617188 -2.453125 5.640625 -3.046875 C 5.648438 -3.140625 5.65625 -3.316406 5.65625 -3.578125 C 5.65625 -3.847656 5.648438 -4.03125 5.640625 -4.125 C 5.617188 -4.707031 5.472656 -5.148438 5.203125 -5.453125 C 4.941406 -5.765625 4.570312 -5.921875 4.09375 -5.921875 C 3.601562 -5.921875 3.222656 -5.765625 2.953125 -5.453125 C 2.691406 -5.148438 2.550781 -4.707031 2.53125 -4.125 L 2.515625 -3.578125 L 2.53125 -3.046875 C 2.550781 -2.453125 2.691406 -2.003906 2.953125 -1.703125 C 3.222656 -1.398438 3.601562 -1.25 4.09375 -1.25 Z M 4.09375 -1.25 "/></g></g></g><g fill="#073b4c" fill-opacity="1"><g transform="translate(249.665341, 183.625418)"><g><path d="M 3.453125 0 C 3.304688 0 3.195312 -0.0234375 3.125 -0.078125 C 3.050781 -0.140625 2.992188 -0.226562 2.953125 -0.34375 L 0.359375 -6.734375 C 0.347656 -6.765625 0.34375 -6.804688 0.34375 -6.859375 C 0.34375 -6.941406 0.375 -7.015625 0.4375 -7.078125 C 0.5 -7.140625 0.566406 -7.171875 0.640625 -7.171875 L 1.78125 -7.171875 C 1.957031 -7.171875 2.082031 -7.082031 2.15625 -6.90625 L 3.96875 -2.09375 L 5.78125 -6.90625 C 5.800781 -6.96875 5.84375 -7.023438 5.90625 -7.078125 C 5.96875 -7.140625 6.046875 -7.171875 6.140625 -7.171875 L 7.296875 -7.171875 C 7.378906 -7.171875 7.445312 -7.140625 7.5 -7.078125 C 7.550781 -7.015625 7.578125 -6.941406 7.578125 -6.859375 C 7.578125 -6.804688 7.570312 -6.765625 7.5625 -6.734375 L 4.984375 -0.34375 C 4.890625 -0.113281 4.726562 0 4.5 0 Z M 3.453125 0 "/></g></g></g><g fill="#073b4c" fill-opacity="1"><g transform="translate(257.588022, 183.625418)"><g><path d="M 4.015625 0.140625 C 2.984375 0.140625 2.164062 -0.148438 1.5625 -0.734375 C 0.957031 -1.328125 0.640625 -2.164062 0.609375 -3.25 L 0.59375 -3.59375 C 0.59375 -4.738281 0.890625 -5.640625 1.484375 -6.296875 C 2.085938 -6.960938 2.925781 -7.296875 4 -7.296875 C 5.09375 -7.296875 5.9375 -6.960938 6.53125 -6.296875 C 7.125 -5.640625 7.421875 -4.765625 7.421875 -3.671875 L 7.421875 -3.375 C 7.421875 -3.28125 7.382812 -3.203125 7.3125 -3.140625 C 7.25 -3.078125 7.164062 -3.046875 7.0625 -3.046875 L 2.5 -3.046875 L 2.5 -2.9375 C 2.507812 -2.414062 2.644531 -1.988281 2.90625 -1.65625 C 3.175781 -1.320312 3.539062 -1.15625 4 -1.15625 C 4.519531 -1.15625 4.945312 -1.367188 5.28125 -1.796875 C 5.363281 -1.890625 5.425781 -1.945312 5.46875 -1.96875 C 5.519531 -2 5.597656 -2.015625 5.703125 -2.015625 L 6.921875 -2.015625 C 7.003906 -2.015625 7.070312 -1.988281 7.125 -1.9375 C 7.1875 -1.894531 7.21875 -1.832031 7.21875 -1.75 C 7.21875 -1.53125 7.085938 -1.269531 6.828125 -0.96875 C 6.566406 -0.675781 6.191406 -0.414062 5.703125 -0.1875 C 5.210938 0.03125 4.648438 0.140625 4.015625 0.140625 Z M 5.515625 -4.21875 L 5.515625 -4.25 C 5.515625 -4.789062 5.378906 -5.222656 5.109375 -5.546875 C 4.835938 -5.867188 4.46875 -6.03125 4 -6.03125 C 3.53125 -6.03125 3.160156 -5.867188 2.890625 -5.546875 C 2.628906 -5.222656 2.5 -4.789062 2.5 -4.25 L 2.5 -4.21875 Z M 5.515625 -4.21875 "/></g></g></g><g fill="#073b4c" fill-opacity="1"><g transform="translate(265.552032, 183.625418)"><g><path d="M 0.8125 1.03125 C 0.738281 1.03125 0.675781 1.003906 0.625 0.953125 C 0.582031 0.898438 0.566406 0.832031 0.578125 0.75 L 0.9375 -1.609375 C 0.988281 -1.898438 1.140625 -2.046875 1.390625 -2.046875 L 2.671875 -2.046875 C 2.734375 -2.046875 2.789062 -2.019531 2.84375 -1.96875 C 2.894531 -1.925781 2.921875 -1.875 2.921875 -1.8125 C 2.921875 -1.757812 2.90625 -1.691406 2.875 -1.609375 L 1.984375 0.671875 C 1.890625 0.910156 1.738281 1.03125 1.53125 1.03125 Z M 0.8125 1.03125 "/></g></g></g><g fill="#073b4c" fill-opacity="1"><g transform="translate(269.203353, 183.625418)"><g/></g></g><g fill="#073b4c" fill-opacity="1"><g transform="translate(272.344863, 183.625418)"><g><path d="M 3.9375 0 C 3.84375 0 3.765625 -0.03125 3.703125 -0.09375 C 3.640625 -0.15625 3.609375 -0.234375 3.609375 -0.328125 L 3.609375 -3.4375 L 0.34375 -9.203125 C 0.3125 -9.285156 0.296875 -9.335938 0.296875 -9.359375 C 0.296875 -9.441406 0.328125 -9.507812 0.390625 -9.5625 C 0.453125 -9.613281 0.519531 -9.640625 0.59375 -9.640625 L 1.828125 -9.640625 C 2.003906 -9.640625 2.148438 -9.554688 2.265625 -9.390625 L 4.578125 -5.390625 L 6.90625 -9.390625 C 6.9375 -9.453125 6.988281 -9.507812 7.0625 -9.5625 C 7.132812 -9.613281 7.21875 -9.640625 7.3125 -9.640625 L 8.5625 -9.640625 C 8.644531 -9.640625 8.710938 -9.613281 8.765625 -9.5625 C 8.816406 -9.507812 8.84375 -9.441406 8.84375 -9.359375 C 8.84375 -9.304688 8.832031 -9.253906 8.8125 -9.203125 L 5.546875 -3.4375 L 5.546875 -0.328125 C 5.546875 -0.222656 5.515625 -0.140625 5.453125 -0.078125 C 5.390625 -0.0234375 5.304688 0 5.203125 0 Z M 3.9375 0 "/></g></g></g><g fill="#073b4c" fill-opacity="1"><g transform="translate(281.507614, 183.625418)"><g><path d="M 4.09375 0.140625 C 3.007812 0.140625 2.171875 -0.132812 1.578125 -0.6875 C 0.992188 -1.238281 0.679688 -2.003906 0.640625 -2.984375 L 0.625 -3.578125 L 0.640625 -4.1875 C 0.679688 -5.15625 1 -5.914062 1.59375 -6.46875 C 2.195312 -7.019531 3.03125 -7.296875 4.09375 -7.296875 C 5.144531 -7.296875 5.96875 -7.019531 6.5625 -6.46875 C 7.164062 -5.914062 7.488281 -5.15625 7.53125 -4.1875 C 7.539062 -4.082031 7.546875 -3.878906 7.546875 -3.578125 C 7.546875 -3.285156 7.539062 -3.085938 7.53125 -2.984375 C 7.488281 -2.003906 7.171875 -1.238281 6.578125 -0.6875 C 5.992188 -0.132812 5.164062 0.140625 4.09375 0.140625 Z M 4.09375 -1.25 C 4.582031 -1.25 4.957031 -1.398438 5.21875 -1.703125 C 5.476562 -2.003906 5.617188 -2.453125 5.640625 -3.046875 C 5.648438 -3.140625 5.65625 -3.316406 5.65625 -3.578125 C 5.65625 -3.847656 5.648438 -4.03125 5.640625 -4.125 C 5.617188 -4.707031 5.472656 -5.148438 5.203125 -5.453125 C 4.941406 -5.765625 4.570312 -5.921875 4.09375 -5.921875 C 3.601562 -5.921875 3.222656 -5.765625 2.953125 -5.453125 C 2.691406 -5.148438 2.550781 -4.707031 2.53125 -4.125 L 2.515625 -3.578125 L 2.53125 -3.046875 C 2.550781 -2.453125 2.691406 -2.003906 2.953125 -1.703125 C 3.222656 -1.398438 3.601562 -1.25 4.09375 -1.25 Z M 4.09375 -1.25 "/></g></g></g><g fill="#073b4c" fill-opacity="1"><g transform="translate(289.678308, 183.625418)"><g><path d="M 3.5625 0.140625 C 2.71875 0.140625 2.050781 -0.132812 1.5625 -0.6875 C 1.082031 -1.238281 0.84375 -2 0.84375 -2.96875 L 0.84375 -6.828125 C 0.84375 -6.929688 0.875 -7.015625 0.9375 -7.078125 C 1 -7.140625 1.078125 -7.171875 1.171875 -7.171875 L 2.40625 -7.171875 C 2.5 -7.171875 2.578125 -7.132812 2.640625 -7.0625 C 2.710938 -7 2.75 -6.921875 2.75 -6.828125 L 2.75 -3.046875 C 2.75 -1.910156 3.238281 -1.34375 4.21875 -1.34375 C 4.695312 -1.34375 5.078125 -1.492188 5.359375 -1.796875 C 5.640625 -2.109375 5.78125 -2.523438 5.78125 -3.046875 L 5.78125 -6.828125 C 5.78125 -6.929688 5.8125 -7.015625 5.875 -7.078125 C 5.9375 -7.140625 6.015625 -7.171875 6.109375 -7.171875 L 7.328125 -7.171875 C 7.429688 -7.171875 7.507812 -7.140625 7.5625 -7.078125 C 7.625 -7.015625 7.65625 -6.929688 7.65625 -6.828125 L 7.65625 -0.328125 C 7.65625 -0.234375 7.625 -0.15625 7.5625 -0.09375 C 7.507812 -0.03125 7.429688 0 7.328125 0 L 6.1875 0 C 6.09375 0 6.015625 -0.03125 5.953125 -0.09375 C 5.890625 -0.15625 5.859375 -0.234375 5.859375 -0.328125 L 5.859375 -0.890625 C 5.347656 -0.203125 4.582031 0.140625 3.5625 0.140625 Z M 3.5625 0.140625 "/></g></g></g><g fill="#073b4c" fill-opacity="1"><g transform="translate(298.248581, 183.625418)"><g/></g></g><g fill="#073b4c" fill-opacity="1"><g transform="translate(301.390091, 183.625418)"><g><path d="M 1.40625 0 C 1.3125 0 1.234375 -0.03125 1.171875 -0.09375 C 1.109375 -0.15625 1.078125 -0.234375 1.078125 -0.328125 L 1.078125 -9.296875 C 1.078125 -9.398438 1.101562 -9.484375 1.15625 -9.546875 C 1.21875 -9.609375 1.300781 -9.640625 1.40625 -9.640625 L 4.96875 -9.640625 C 6.101562 -9.640625 6.988281 -9.378906 7.625 -8.859375 C 8.257812 -8.335938 8.578125 -7.59375 8.578125 -6.625 C 8.578125 -5.957031 8.414062 -5.394531 8.09375 -4.9375 C 7.78125 -4.488281 7.332031 -4.160156 6.75 -3.953125 L 8.75 -0.4375 C 8.78125 -0.382812 8.796875 -0.335938 8.796875 -0.296875 C 8.796875 -0.210938 8.765625 -0.140625 8.703125 -0.078125 C 8.640625 -0.0234375 8.570312 0 8.5 0 L 7.234375 0 C 7.085938 0 6.972656 -0.03125 6.890625 -0.09375 C 6.804688 -0.164062 6.734375 -0.257812 6.671875 -0.375 L 4.90625 -3.640625 L 3.015625 -3.640625 L 3.015625 -0.328125 C 3.015625 -0.234375 2.984375 -0.15625 2.921875 -0.09375 C 2.859375 -0.03125 2.773438 0 2.671875 0 Z M 4.9375 -5.203125 C 5.488281 -5.203125 5.898438 -5.320312 6.171875 -5.5625 C 6.453125 -5.8125 6.59375 -6.171875 6.59375 -6.640625 C 6.59375 -7.109375 6.453125 -7.46875 6.171875 -7.71875 C 5.898438 -7.976562 5.488281 -8.109375 4.9375 -8.109375 L 3.015625 -8.109375 L 3.015625 -5.203125 Z M 4.9375 -5.203125 "/></g></g></g><g fill="#073b4c" fill-opacity="1"><g transform="translate(310.676849, 183.625418)"><g><path d="M 4.015625 0.140625 C 2.984375 0.140625 2.164062 -0.148438 1.5625 -0.734375 C 0.957031 -1.328125 0.640625 -2.164062 0.609375 -3.25 L 0.59375 -3.59375 C 0.59375 -4.738281 0.890625 -5.640625 1.484375 -6.296875 C 2.085938 -6.960938 2.925781 -7.296875 4 -7.296875 C 5.09375 -7.296875 5.9375 -6.960938 6.53125 -6.296875 C 7.125 -5.640625 7.421875 -4.765625 7.421875 -3.671875 L 7.421875 -3.375 C 7.421875 -3.28125 7.382812 -3.203125 7.3125 -3.140625 C 7.25 -3.078125 7.164062 -3.046875 7.0625 -3.046875 L 2.5 -3.046875 L 2.5 -2.9375 C 2.507812 -2.414062 2.644531 -1.988281 2.90625 -1.65625 C 3.175781 -1.320312 3.539062 -1.15625 4 -1.15625 C 4.519531 -1.15625 4.945312 -1.367188 5.28125 -1.796875 C 5.363281 -1.890625 5.425781 -1.945312 5.46875 -1.96875 C 5.519531 -2 5.597656 -2.015625 5.703125 -2.015625 L 6.921875 -2.015625 C 7.003906 -2.015625 7.070312 -1.988281 7.125 -1.9375 C 7.1875 -1.894531 7.21875 -1.832031 7.21875 -1.75 C 7.21875 -1.53125 7.085938 -1.269531 6.828125 -0.96875 C 6.566406 -0.675781 6.191406 -0.414062 5.703125 -0.1875 C 5.210938 0.03125 4.648438 0.140625 4.015625 0.140625 Z M 5.515625 -4.21875 L 5.515625 -4.25 C 5.515625 -4.789062 5.378906 -5.222656 5.109375 -5.546875 C 4.835938 -5.867188 4.46875 -6.03125 4 -6.03125 C 3.53125 -6.03125 3.160156 -5.867188 2.890625 -5.546875 C 2.628906 -5.222656 2.5 -4.789062 2.5 -4.25 L 2.5 -4.21875 Z M 5.515625 -4.21875 "/></g></g></g><g fill="#073b4c" fill-opacity="1"><g transform="translate(318.640859, 183.625418)"><g><path d="M 1.25 0 C 1.15625 0 1.078125 -0.03125 1.015625 -0.09375 C 0.953125 -0.15625 0.921875 -0.234375 0.921875 -0.328125 L 0.921875 -9.453125 C 0.921875 -9.554688 0.953125 -9.632812 1.015625 -9.6875 C 1.078125 -9.75 1.15625 -9.78125 1.25 -9.78125 L 2.40625 -9.78125 C 2.507812 -9.78125 2.59375 -9.75 2.65625 -9.6875 C 2.71875 -9.632812 2.75 -9.554688 2.75 -9.453125 L 2.75 -0.328125 C 2.75 -0.234375 2.71875 -0.15625 2.65625 -0.09375 C 2.59375 -0.03125 2.507812 0 2.40625 0 Z M 1.25 0 "/></g></g></g><g fill="#073b4c" fill-opacity="1"><g transform="translate(322.305956, 183.625418)"><g><path d="M 2.984375 0.140625 C 2.515625 0.140625 2.082031 0.046875 1.6875 -0.140625 C 1.300781 -0.328125 0.992188 -0.582031 0.765625 -0.90625 C 0.546875 -1.226562 0.4375 -1.582031 0.4375 -1.96875 C 0.4375 -2.59375 0.6875 -3.097656 1.1875 -3.484375 C 1.695312 -3.867188 2.394531 -4.128906 3.28125 -4.265625 L 5.171875 -4.546875 L 5.171875 -4.84375 C 5.171875 -5.238281 5.066406 -5.535156 4.859375 -5.734375 C 4.660156 -5.929688 4.34375 -6.03125 3.90625 -6.03125 C 3.601562 -6.03125 3.359375 -5.972656 3.171875 -5.859375 C 2.984375 -5.753906 2.832031 -5.644531 2.71875 -5.53125 C 2.601562 -5.414062 2.53125 -5.34375 2.5 -5.3125 C 2.457031 -5.195312 2.382812 -5.140625 2.28125 -5.140625 L 1.21875 -5.140625 C 1.132812 -5.140625 1.0625 -5.164062 1 -5.21875 C 0.9375 -5.28125 0.90625 -5.351562 0.90625 -5.4375 C 0.914062 -5.664062 1.03125 -5.925781 1.25 -6.21875 C 1.46875 -6.507812 1.800781 -6.757812 2.25 -6.96875 C 2.695312 -7.1875 3.25 -7.296875 3.90625 -7.296875 C 5 -7.296875 5.789062 -7.050781 6.28125 -6.5625 C 6.78125 -6.082031 7.03125 -5.445312 7.03125 -4.65625 L 7.03125 -0.328125 C 7.03125 -0.234375 7 -0.15625 6.9375 -0.09375 C 6.875 -0.03125 6.796875 0 6.703125 0 L 5.546875 0 C 5.460938 0 5.382812 -0.03125 5.3125 -0.09375 C 5.25 -0.15625 5.21875 -0.234375 5.21875 -0.328125 L 5.21875 -0.875 C 5.019531 -0.570312 4.734375 -0.328125 4.359375 -0.140625 C 3.992188 0.046875 3.535156 0.140625 2.984375 0.140625 Z M 3.453125 -1.1875 C 3.960938 -1.1875 4.378906 -1.347656 4.703125 -1.671875 C 5.023438 -2.003906 5.1875 -2.484375 5.1875 -3.109375 L 5.1875 -3.390625 L 3.796875 -3.171875 C 2.742188 -3.003906 2.21875 -2.648438 2.21875 -2.109375 C 2.21875 -1.816406 2.335938 -1.585938 2.578125 -1.421875 C 2.828125 -1.265625 3.117188 -1.1875 3.453125 -1.1875 Z M 3.453125 -1.1875 "/></g></g></g><g fill="#073b4c" fill-opacity="1"><g transform="translate(330.187298, 183.625418)"><g><path d="M 0.609375 0 C 0.523438 0 0.453125 -0.0234375 0.390625 -0.078125 C 0.328125 -0.140625 0.296875 -0.210938 0.296875 -0.296875 C 0.296875 -0.378906 0.328125 -0.457031 0.390625 -0.53125 L 2.75 -3.671875 L 0.5625 -6.625 C 0.507812 -6.695312 0.484375 -6.773438 0.484375 -6.859375 C 0.484375 -6.941406 0.507812 -7.015625 0.5625 -7.078125 C 0.625 -7.140625 0.695312 -7.171875 0.78125 -7.171875 L 2 -7.171875 C 2.101562 -7.171875 2.175781 -7.148438 2.21875 -7.109375 C 2.269531 -7.066406 2.328125 -7.007812 2.390625 -6.9375 L 3.921875 -4.875 L 5.453125 -6.9375 C 5.460938 -6.945312 5.5 -6.988281 5.5625 -7.0625 C 5.625 -7.132812 5.71875 -7.171875 5.84375 -7.171875 L 7.015625 -7.171875 C 7.097656 -7.171875 7.164062 -7.140625 7.21875 -7.078125 C 7.269531 -7.015625 7.296875 -6.945312 7.296875 -6.875 C 7.296875 -6.78125 7.269531 -6.695312 7.21875 -6.625 L 5.015625 -3.671875 L 7.390625 -0.53125 C 7.441406 -0.457031 7.46875 -0.378906 7.46875 -0.296875 C 7.46875 -0.210938 7.4375 -0.140625 7.375 -0.078125 C 7.320312 -0.0234375 7.253906 0 7.171875 0 L 5.890625 0 C 5.742188 0 5.625 -0.0703125 5.53125 -0.21875 L 3.875 -2.390625 L 2.203125 -0.21875 C 2.097656 -0.0703125 1.972656 0 1.828125 0 Z M 0.609375 0 "/></g></g></g></svg>